<svg id="Capa_1" enable-background="new 0 0 512 512" height="512" viewBox="0 0 512 512" width="512" xmlns="http://www.w3.org/2000/svg"><g><g><path d="m272.125 511.999h-233.48c0-44.36 7.314-97.764 10.796-120.717 1.143-7.479 5.542-14.093 12.033-17.987 12.362-7.407 25.415-13.279 37.725-17.884 22.746-8.54 42.969-12.754 51.664-14.32 2.998-.546 6.047-.546 9.045 0 8.695 1.566 28.917 5.779 51.664 14.32 12.311 4.605 25.363 10.477 37.725 17.884 6.49 3.894 10.889 10.508 12.033 17.987 3.481 22.952 10.795 76.357 10.795 120.717z" fill="#f9f6f6"/><path d="m101.888 511.999h-17.307c0-29.494 10.91-68.538 10.91-68.538s.267 38.611 6.397 68.538z" fill="#e7ecf6"/><path d="m245.639 511.999h-19.45c0-29.494-10.91-68.538-10.91-68.538s29.65 15.39 30.36 68.538z" fill="#e7ecf6"/><path d="m127.437 400.71 16.406 19.423 11.542 14.888 11.543-14.888 16.406-19.423v-40.915h-64.756" fill="#cb5769"/><path d="m61.474 373.295c6.634-3.976 13.475-7.51 20.284-10.642-5.017 4.213-8.427 11.291-9.313 19.285-2.72 24.735-8.447 82.27-8.447 130.06h-25.353c0-44.36 7.314-97.764 10.796-120.717 1.144-7.478 5.543-14.092 12.033-17.986z" fill="#e7ecf6"/><path d="m211.571 355.411-19.378 53.817-36.808-35.387-36.808 35.387-19.378-53.817c22.746-8.54 42.969-12.754 51.664-14.32 2.998-.546 6.047-.546 9.045 0 8.694 1.566 28.917 5.78 51.663 14.32z" fill="#e7ecf6"/><path d="m183.33 299.228v46.669c0 15.43-12.512 27.942-27.942 27.942-15.439 0-27.951-12.512-27.951-27.942v-46.669z" fill="#ffddce"/><path d="m164.513 372.316c-2.859.984-5.928 1.522-9.124 1.522-15.439 0-27.951-12.512-27.951-27.942v-46.669h18.247v46.669c.001 12.242 7.872 22.644 18.828 26.42z" fill="#ffcbbe"/><path d="m38.642 260.368c-20.149 0-36.482-16.334-36.482-36.482 0-2.773.309-5.474.896-8.07 4.733-20.96 35.587-17.523 35.587 3.965h233.487c0-21.488 30.854-24.926 35.587-3.965.586 2.596.896 5.297.896 8.07 0 20.149-16.334 36.482-36.482 36.482" fill="#ffcbbe"/><path d="m38.648 241.064c-2.424 0-4.81-1.138-6.314-3.265-.164-.224-5.043-6.789-9.754-4.888-3.956 1.596-8.459-.317-10.056-4.274s.317-8.46 4.274-10.056c6.83-2.756 14.237-1.668 20.855 3.063 4.362 3.118 7.033 6.855 7.323 7.271 2.443 3.499 1.586 8.315-1.913 10.758-1.346.94-2.888 1.391-4.415 1.391z" fill="#eaac9d"/><path d="m272.122 241.095c-1.531 0-3.078-.454-4.431-1.399-3.5-2.442-4.34-7.282-1.897-10.781.29-.416 2.961-4.153 7.323-7.271 6.618-4.731 14.024-5.818 20.855-3.063 3.957 1.597 5.871 6.099 4.274 10.056s-6.098 5.871-10.056 4.274c-4.768-1.925-9.709 4.825-9.758 4.894-1.498 2.146-3.883 3.29-6.31 3.29z" fill="#eaac9d"/><path d="m127.437 299.228h55.893v42.994h-55.893z" fill="#ffcbbe"/><path d="m187.04 327.429h-63.309c-46.993 0-85.089-38.096-85.089-85.089v-120.006h233.487v120.006c0 46.993-38.096 85.089-85.089 85.089z" fill="#ffddce"/><path d="m179.624 327.429h-55.893c-46.988 0-85.089-38.1-85.089-85.089v-120.01h55.893v120.01c0 46.988 38.092 85.089 85.089 85.089z" fill="#ffcbbe"/><g fill="#2b4d66"><ellipse cx="100.643" cy="203.435" rx="11.037" ry="18.309"/><ellipse cx="210.127" cy="203.435" rx="11.037" ry="18.309"/></g><g fill="#eaa598"><ellipse cx="232.399" cy="240.143" rx="19.11" ry="11.62"/><ellipse cx="78.372" cy="240.143" rx="19.11" ry="11.62"/></g><path d="m96.867 39.034h-36.13c-22.446 0-40.643 18.196-40.643 40.643v55.04c0 11.191 9.072 20.263 20.263 20.263h25.4c33.458 0 60.581-27.123 60.581-60.581v-25.893c.001-16.277-13.194-29.472-29.471-29.472z" fill="#aa7a63"/><path d="m96.649 39.028c-22.443 0-40.64 18.197-40.64 40.648v75.301h-15.651c-11.191 0-20.263-9.072-20.263-20.263v-55.037c0-22.452 18.197-40.648 40.64-40.648h35.914z" fill="#986b54"/><path d="m218.166 145.082h-56.262c-30.461 0-55.155-24.694-55.155-55.155v-34.772c0-30.461 24.694-55.155 55.155-55.155h164.648v36.696c0 59.86-48.526 108.386-108.386 108.386z" fill="#aa7a63"/><path d="m210.539 145.079h-48.636c-30.465 0-55.153-24.688-55.153-55.153v-34.77c0-30.465 24.688-55.153 55.153-55.153h48.636c-30.465 0-55.153 24.688-55.153 55.153v34.77c0 30.465 24.688 55.153 55.153 55.153z" fill="#986b54"/><g fill="#dd636e"><path d="m166.928 420.133c10.598 23.329 10.598 62.748 10.598 62.748s-4.724 15.966-22.141 29.117h.002c-17.417-13.152-22.141-29.117-22.141-29.117s0-39.419 10.598-62.748"/><path d="m155.385 280.16c-7.648 0-15.296-2.911-21.119-8.734-3.018-3.017-3.018-7.909 0-10.927 3.017-3.018 7.909-3.018 10.927 0 5.62 5.62 14.765 5.62 20.384 0 3.017-3.018 7.909-3.018 10.927 0 3.018 3.017 3.018 7.909 0 10.927-5.822 5.823-13.47 8.734-21.119 8.734z"/></g></g><g><path d="m384.556 404.912c8.365 2.236 18.049 5.202 28.248 9.024 12.311 4.605 25.363 10.477 37.725 17.884 6.49 3.894 10.889 10.508 12.033 17.987 1.999 13.176 5.264 36.407 7.675 62.192h-227.239c2.411-25.786 5.676-49.016 7.675-62.192 1.144-7.479 5.542-14.093 12.033-17.987 12.362-7.407 25.415-13.279 37.725-17.884 10.199-3.822 19.883-6.789 28.248-9.024" fill="#9dc6fb"/><path d="m328.666 459.239 16.406 19.423 11.54 7.933 11.545-7.933 16.406-19.423v-40.916h-64.757" fill="#cb5769"/><path d="m282.99 421.179c-5.017 4.214-8.427 11.291-9.313 19.285-1.648 14.969-4.399 41.959-6.305 71.536h-24.374c2.411-25.786 5.676-49.016 7.675-62.192 1.143-7.479 5.542-14.093 12.033-17.987 6.634-3.977 13.475-7.51 20.284-10.642z" fill="#80b4fb"/><path d="m412.8 413.94-19.378 53.817-36.808-35.387-36.809 35.387-19.378-53.817c22.746-8.54 42.969-12.754 51.664-14.32 2.998-.546 6.047-.546 9.045 0 8.695 1.566 28.918 5.779 51.664 14.32z" fill="#80b4fb"/><path d="m384.559 357.756v46.669c0 15.43-12.512 27.943-27.943 27.943-15.439 0-27.951-12.512-27.951-27.943v-46.669z" fill="#c38959"/><path d="m365.742 430.844c-2.859.984-5.928 1.522-9.124 1.522-15.439 0-27.951-12.512-27.951-27.943v-46.669h18.247v46.669c.001 12.244 7.871 22.646 18.828 26.421z" fill="#b17a4a"/><path d="m239.87 318.896c-20.149 0-36.482-16.334-36.482-36.482 0-2.773.309-5.474.896-8.07 4.733-20.96 35.587-17.523 35.587 3.965h233.488c0-21.488 30.854-24.926 35.587-3.965.586 2.596.896 5.297.896 8.07 0 20.149-16.334 36.482-36.482 36.482" fill="#b17a4a"/><path d="m239.878 299.592c-2.425 0-4.811-1.138-6.315-3.265-.91-1.261-4.223-4.908-7.481-5.24-4.244-.432-7.336-4.224-6.904-8.469.433-4.245 4.206-7.338 8.47-6.904 10.852 1.105 17.802 10.645 18.559 11.729 2.442 3.499 1.586 8.316-1.913 10.758-1.348.94-2.89 1.391-4.416 1.391z" fill="#8f6239"/><path d="m473.351 299.592c-1.526 0-3.068-.451-4.415-1.391-3.499-2.442-4.355-7.259-1.913-10.758.907-1.299 9.191-12.667 21.948-11.785 4.258.295 7.47 3.984 7.175 8.241-.296 4.257-4.005 7.469-8.241 7.175-3.628-.262-7.577 4.306-8.209 5.213-1.504 2.153-3.905 3.305-6.345 3.305z" fill="#8f6239"/><path d="m328.666 357.756h55.893v42.994h-55.893z" fill="#b17a4a"/><path d="m388.269 385.957h-63.309c-46.993 0-85.089-38.096-85.089-85.089v-111.011l4.063-11.492 112.684-69.272 112.22 68.991 4.521 11.774v111.011c-.001 46.993-38.097 85.088-85.09 85.088z" fill="#c38959"/><path d="m380.848 385.952h-55.886c-46.992 0-85.09-38.098-85.09-85.079v-111.016s17.032-33.637 43.958-33.637c4.336 0 8.266.86 11.94 2.314v142.339c-.001 46.98 38.086 85.079 85.078 85.079z" fill="#b17a4a"/><path d="m473.364 139.796v50.061s-17.02-28.018-43.958-28.018c-26.926 0-37.889 33.273-72.79 33.273-34.889 0-45.864-33.273-72.79-33.273s-43.958 28.018-43.958 28.018v-50.061c0-32.088 26.019-58.095 58.106-58.095h117.283c32.088 0 58.107 26.007 58.107 58.095z" fill="#365e7d"/><path d="m297.975 81.701h56.188c-32.087 0-58.106 26.007-58.106 58.095v24.473c-3.755-1.523-7.778-2.43-12.23-2.43-26.926 0-43.958 28.018-43.958 28.018v-50.061c0-32.088 26.019-58.095 58.106-58.095z" fill="#2b4d66"/><g fill="#2b4d66"><path d="m301.872 243.654c-6.086 0-11.036 8.213-11.036 18.309 0 10.095 4.951 18.309 11.036 18.309s11.037-8.213 11.037-18.309-4.952-18.309-11.037-18.309z"/><path d="m411.356 243.654c-6.086 0-11.036 8.213-11.036 18.309 0 10.095 4.951 18.309 11.036 18.309 6.086 0 11.037-8.213 11.037-18.309s-4.951-18.309-11.037-18.309z"/></g><g fill="#dd636e"><path d="m356.615 338.703c-7.978 0-15.478-3.107-21.119-8.748-3.018-3.017-3.018-7.909-.001-10.927 3.018-3.017 7.91-3.017 10.927 0 2.723 2.723 6.343 4.222 10.193 4.222s7.469-1.499 10.191-4.222c3.018-3.017 7.91-3.017 10.927 0 3.018 3.017 3.018 7.909.001 10.927-5.642 5.641-13.142 8.748-21.119 8.748z"/><path d="m376.624 512h-40.012c1.504-11.239 4.069-23.674 8.458-33.337h23.086c4.388 9.663 6.964 22.098 8.468 33.337z"/></g></g></g></svg>